<?xml version="1.0" encoding="UTF-8" standalone="no"?>
<!-- Created with Inkscape (http://www.inkscape.org/) -->

<svg
   xmlns:dc="http://purl.org/dc/elements/1.1/"
   xmlns:cc="http://creativecommons.org/ns#"
   xmlns:rdf="http://www.w3.org/1999/02/22-rdf-syntax-ns#"
   xmlns:svg="http://www.w3.org/2000/svg"
   xmlns="http://www.w3.org/2000/svg"
   xmlns:sodipodi="http://sodipodi.sourceforge.net/DTD/sodipodi-0.dtd"
   xmlns:inkscape="http://www.inkscape.org/namespaces/inkscape"
   viewBox="0 0 194.65773 194.27977"
   version="1.1"
   id="svg8"
   inkscape:version="0.92.2 (5c3e80d, 2017-08-06)"
   sodipodi:docname="cat_socials.svg">
  <defs
     id="defs2" />
  <sodipodi:namedview
     id="base"
     pagecolor="#ffffff"
     bordercolor="#666666"
     borderopacity="1.0"
     inkscape:pageopacity="0.0"
     inkscape:pageshadow="2"
     inkscape:zoom="0.49497475"
     inkscape:cx="296.49164"
     inkscape:cy="378.54279"
     inkscape:document-units="mm"
     inkscape:current-layer="layer1"
     showgrid="false"
     fit-margin-top="0"
     fit-margin-left="0"
     fit-margin-right="0"
     fit-margin-bottom="0"
     showguides="true"
     inkscape:guide-bbox="true"
     inkscape:window-width="1366"
     inkscape:window-height="705"
     inkscape:window-x="-8"
     inkscape:window-y="-8"
     inkscape:window-maximized="1" />
  <metadata
     id="metadata5">
    <rdf:RDF>
      <cc:Work
         rdf:about="">
        <dc:format>image/svg+xml</dc:format>
        <dc:type
           rdf:resource="http://purl.org/dc/dcmitype/StillImage" />
        <dc:title />
      </cc:Work>
    </rdf:RDF>
  </metadata>
  <g
     inkscape:label="Livello 1"
     inkscape:groupmode="layer"
     id="layer1"
     transform="translate(-6.5978956,8.2823839)">
    <path
       style="color:#000000;font-style:normal;font-variant:normal;font-weight:normal;font-stretch:normal;font-size:medium;line-height:normal;font-family:sans-serif;font-variant-ligatures:normal;font-variant-position:normal;font-variant-caps:normal;font-variant-numeric:normal;font-variant-alternates:normal;font-feature-settings:normal;text-indent:0;text-align:start;text-decoration:none;text-decoration-line:none;text-decoration-style:solid;text-decoration-color:#000000;letter-spacing:normal;word-spacing:normal;text-transform:none;writing-mode:lr-tb;direction:ltr;text-orientation:mixed;dominant-baseline:auto;baseline-shift:baseline;text-anchor:start;white-space:normal;shape-padding:0;clip-rule:nonzero;display:inline;overflow:visible;visibility:visible;opacity:1;isolation:auto;mix-blend-mode:normal;color-interpolation:sRGB;color-interpolation-filters:linearRGB;solid-color:#000000;solid-opacity:1;vector-effect:none;fill:currentColor;fill-opacity:1;fill-rule:nonzero;stroke:none;stroke-width:13.22916603;stroke-linecap:round;stroke-linejoin:round;stroke-miterlimit:4;stroke-dasharray:none;stroke-dashoffset:0;stroke-opacity:1;color-rendering:auto;image-rendering:auto;shape-rendering:auto;text-rendering:auto;enable-background:accumulate"
       d="M 97.330078 0 C 43.66263 -1.2e-006 9.9999966e-008 43.562633 0 97.140625 C -1.7e-006 150.71861 43.662629 194.28125 97.330078 194.28125 C 150.99754 194.28125 194.6582 150.71861 194.6582 97.140625 C 194.6582 43.562634 150.99754 -5.9999997e-007 97.330078 0 z M 97.330078 13.230469 C 143.86286 13.230468 181.42969 50.727131 181.42969 97.140625 C 181.4297 143.55412 143.86286 181.05078 97.330078 181.05078 C 50.797307 181.05078 13.228514 143.55412 13.228516 97.140625 C 13.228516 50.727131 50.797308 13.230468 97.330078 13.230469 z M 97.328125 43.21875 C 82.427559 43.21875 70.369141 55.279122 70.369141 70.179688 C 70.369141 85.080254 82.427559 97.140625 97.328125 97.140625 C 112.22868 97.140625 124.28906 85.080254 124.28906 70.179688 C 124.28906 55.279122 112.22868 43.21875 97.328125 43.21875 z M 43.408203 58.625 C 34.910789 58.625 28.001953 65.533835 28.001953 74.03125 C 28.001953 82.528665 34.910789 89.4375 43.408203 89.4375 C 51.905617 89.4375 58.814453 82.528665 58.814453 74.03125 C 58.814453 65.533835 51.905617 58.625 43.408203 58.625 z M 151.25 58.625 C 142.75258 58.625 135.84375 65.533835 135.84375 74.03125 C 135.84375 82.528665 142.75258 89.4375 151.25 89.4375 C 159.74741 89.4375 166.65625 82.528665 166.65625 74.03125 C 166.65625 65.533835 159.74741 58.625 151.25 58.625 z M 35.705078 97.140625 C 27.207664 97.140625 20.298828 104.04946 20.298828 112.54688 L 20.298828 120.24805 C 20.298828 124.50879 23.741204 127.95117 28.001953 127.95117 L 43.865234 127.95117 C 45.381765 116.54104 52.265781 106.9371 61.966797 101.61719 C 59.174442 98.848908 55.347993 97.140625 51.111328 97.140625 L 35.705078 97.140625 z M 143.54688 97.140625 C 139.31021 97.140625 135.48377 98.848908 132.69141 101.61719 C 142.39243 106.9371 149.27707 116.54104 150.76953 127.95117 L 166.65625 127.95117 C 170.917 127.95117 174.35938 124.50879 174.35938 120.24805 L 174.35938 112.54688 C 174.35938 104.04946 167.45053 97.140625 158.95312 97.140625 L 143.54688 97.140625 z M 78.841797 104.84375 C 63.532007 104.84375 51.111328 117.26443 51.111328 132.57422 L 51.111328 139.50586 C 51.111328 145.88493 56.286935 151.06055 62.666016 151.06055 L 131.99219 151.06055 C 138.37127 151.06055 143.54688 145.88493 143.54688 139.50586 L 143.54688 132.57422 C 143.54688 117.26443 131.12621 104.84375 115.81641 104.84375 L 113.81836 104.84375 C 108.81139 107.25095 103.24983 108.69531 97.328125 108.69531 C 91.406415 108.69531 85.87089 107.25095 80.839844 104.84375 L 78.841797 104.84375 z "
       transform="translate(6.5978956,-8.2823839)"
       id="path4515" />
  </g>
</svg>
