<?xml version="1.0" encoding="UTF-8" standalone="no"?>
<!-- Created with Inkscape (http://www.inkscape.org/) -->

<svg
   xmlns:dc="http://purl.org/dc/elements/1.1/"
   xmlns:cc="http://creativecommons.org/ns#"
   xmlns:rdf="http://www.w3.org/1999/02/22-rdf-syntax-ns#"
   xmlns:svg="http://www.w3.org/2000/svg"
   xmlns="http://www.w3.org/2000/svg"
   xmlns:sodipodi="http://sodipodi.sourceforge.net/DTD/sodipodi-0.dtd"
   xmlns:inkscape="http://www.inkscape.org/namespaces/inkscape"
   viewBox="0 0 194.65773 194.27977"
   version="1.1"
   id="svg8"
   inkscape:version="0.92.2 (5c3e80d, 2017-08-06)"
   sodipodi:docname="cat_bank.svg">
  <defs
     id="defs2" />
  <sodipodi:namedview
     id="base"
     pagecolor="#ffffff"
     bordercolor="#666666"
     borderopacity="1.0"
     inkscape:pageopacity="0.0"
     inkscape:pageshadow="2"
     inkscape:zoom="0.49497475"
     inkscape:cx="106.58296"
     inkscape:cy="148.22801"
     inkscape:document-units="mm"
     inkscape:current-layer="layer1"
     showgrid="false"
     fit-margin-top="0"
     fit-margin-left="0"
     fit-margin-right="0"
     fit-margin-bottom="0"
     showguides="true"
     inkscape:guide-bbox="true"
     inkscape:window-width="1366"
     inkscape:window-height="705"
     inkscape:window-x="-8"
     inkscape:window-y="-8"
     inkscape:window-maximized="1" />
  <metadata
     id="metadata5">
    <rdf:RDF>
      <cc:Work
         rdf:about="">
        <dc:format>image/svg+xml</dc:format>
        <dc:type
           rdf:resource="http://purl.org/dc/dcmitype/StillImage" />
        <dc:title />
      </cc:Work>
    </rdf:RDF>
  </metadata>
  <g
     inkscape:label="Livello 1"
     inkscape:groupmode="layer"
     id="layer1"
     transform="translate(-6.5978956,8.2823839)">
    <path
       style="color:#000000;font-style:normal;font-variant:normal;font-weight:normal;font-stretch:normal;font-size:medium;line-height:normal;font-family:sans-serif;font-variant-ligatures:normal;font-variant-position:normal;font-variant-caps:normal;font-variant-numeric:normal;font-variant-alternates:normal;font-feature-settings:normal;text-indent:0;text-align:start;text-decoration:none;text-decoration-line:none;text-decoration-style:solid;text-decoration-color:#000000;letter-spacing:normal;word-spacing:normal;text-transform:none;writing-mode:lr-tb;direction:ltr;text-orientation:mixed;dominant-baseline:auto;baseline-shift:baseline;text-anchor:start;white-space:normal;shape-padding:0;clip-rule:nonzero;display:inline;overflow:visible;visibility:visible;opacity:1;isolation:auto;mix-blend-mode:normal;color-interpolation:sRGB;color-interpolation-filters:linearRGB;solid-color:#000000;solid-opacity:1;vector-effect:none;fill:currentColor;fill-opacity:1;fill-rule:nonzero;stroke:none;stroke-width:13.22916603;stroke-linecap:round;stroke-linejoin:round;stroke-miterlimit:4;stroke-dasharray:none;stroke-dashoffset:0;stroke-opacity:1;color-rendering:auto;image-rendering:auto;shape-rendering:auto;text-rendering:auto;enable-background:accumulate"
       d="M 97.330078 0 C 43.66263 -1.2e-006 9.9999966e-008 43.562633 0 97.140625 C -1.7e-006 150.71861 43.662629 194.28125 97.330078 194.28125 C 150.99754 194.28125 194.6582 150.71861 194.6582 97.140625 C 194.6582 43.562634 150.99754 -5.9999997e-007 97.330078 0 z M 97.330078 13.230469 C 143.86286 13.230468 181.42969 50.727131 181.42969 97.140625 C 181.4297 143.55412 143.86286 181.05078 97.330078 181.05078 C 50.797307 181.05078 13.228514 143.55412 13.228516 97.140625 C 13.228516 50.727131 50.797308 13.230468 97.330078 13.230469 z M 101.55859 29.40625 C 87.535673 29.40625 76.160156 40.783724 76.160156 54.806641 C 76.160156 55.362266 76.291899 55.891641 76.318359 56.447266 C 80.340019 55.415391 84.520205 54.806641 88.859375 54.806641 L 122.72656 54.806641 C 124.15531 54.806641 125.55776 54.911744 126.93359 55.017578 C 126.93359 54.938208 126.95898 54.886016 126.95898 54.806641 C 126.95898 40.783724 115.58151 29.40625 101.55859 29.40625 z M 148.125 54.806641 C 140.34625 54.806641 133.46722 58.377526 128.81055 63.880859 C 126.79972 63.589818 124.81676 63.273438 122.72656 63.273438 L 88.859375 63.273438 C 68.380625 63.273438 51.315337 77.826035 47.373047 97.140625 L 35.943359 97.140625 C 32.027529 97.140625 28.930859 93.567651 29.724609 89.519531 C 30.306689 86.503281 33.137871 84.439453 36.207031 84.439453 L 36.472656 84.439453 C 37.345776 84.439453 38.058594 83.724682 38.058594 82.851562 L 38.058594 77.560547 C 38.058594 76.687427 37.345776 75.972656 36.472656 75.972656 C 28.932026 75.972656 22.210308 81.370781 21.257812 88.832031 C 20.093646 97.880781 27.132729 105.60742 35.943359 105.60742 L 46.525391 105.60742 C 46.525391 119.41867 53.246064 131.56128 63.458984 139.28711 L 63.458984 160.64062 C 63.458984 162.96895 65.365029 164.87305 67.693359 164.87305 L 84.625 164.87305 C 86.95334 164.87305 88.859375 162.96895 88.859375 160.64062 L 88.859375 147.93945 L 122.72656 147.93945 L 122.72656 160.64062 C 122.72656 162.96895 124.63065 164.87305 126.95898 164.87305 L 143.89258 164.87305 C 146.22092 164.87305 148.125 162.96895 148.125 160.64062 L 148.125 139.28711 C 151.24708 136.93232 154.02695 134.15441 156.4082 131.00586 L 169.29297 131.00586 C 171.62131 131.00586 173.52539 129.10177 173.52539 126.77344 L 173.52539 92.90625 C 173.52539 90.57792 171.62131 88.673828 169.29297 88.673828 L 161.48828 88.673828 C 159.15995 83.382158 155.77221 78.699033 151.5918 74.783203 L 156.5918 54.806641 L 148.125 54.806641 z M 135.42578 97.140625 C 137.75411 97.140625 139.66016 99.044717 139.66016 101.37305 C 139.66016 103.70138 137.75411 105.60742 135.42578 105.60742 C 133.09744 105.60742 131.19336 103.70138 131.19336 101.37305 C 131.19336 99.044717 133.09744 97.140625 135.42578 97.140625 z "
       transform="translate(6.5978956,-8.2823839)"
       id="path4515" />
  </g>
</svg>
