<?xml version="1.0" encoding="UTF-8" standalone="no"?>
<!-- Created with Inkscape (http://www.inkscape.org/) -->

<svg
   xmlns:dc="http://purl.org/dc/elements/1.1/"
   xmlns:cc="http://creativecommons.org/ns#"
   xmlns:rdf="http://www.w3.org/1999/02/22-rdf-syntax-ns#"
   xmlns:svg="http://www.w3.org/2000/svg"
   xmlns="http://www.w3.org/2000/svg"
   xmlns:sodipodi="http://sodipodi.sourceforge.net/DTD/sodipodi-0.dtd"
   xmlns:inkscape="http://www.inkscape.org/namespaces/inkscape"
   viewBox="0 0 142.91441 23.183596"
   width="100%"
   version="1.1"
   id="svg8"
   inkscape:version="0.92.2 (5c3e80d, 2017-08-06)"
   sodipodi:docname="onedrive_logo.svg">
  <defs
     id="defs2" />
  <sodipodi:namedview
     id="base"
     pagecolor="#ffffff"
     bordercolor="#666666"
     borderopacity="1.0"
     inkscape:pageopacity="0.0"
     inkscape:pageshadow="2"
     inkscape:zoom="2.8"
     inkscape:cx="60.250949"
     inkscape:cy="31.325342"
     inkscape:document-units="mm"
     inkscape:current-layer="layer1"
     showgrid="false"
     fit-margin-top="0.1"
     fit-margin-left="0.1"
     fit-margin-right="0.1"
     fit-margin-bottom="0.1"
     inkscape:window-width="1366"
     inkscape:window-height="705"
     inkscape:window-x="-8"
     inkscape:window-y="-8"
     inkscape:window-maximized="1" />
  <metadata
     id="metadata5">
    <rdf:RDF>
      <cc:Work
         rdf:about="">
        <dc:format>image/svg+xml</dc:format>
        <dc:type
           rdf:resource="http://purl.org/dc/dcmitype/StillImage" />
        <dc:title></dc:title>
      </cc:Work>
    </rdf:RDF>
  </metadata>
  <g
     inkscape:label="Livello 1"
     inkscape:groupmode="layer"
     id="layer1"
     transform="translate(-12.075532,-16.289158)">
    <path
       style="fill:#304ba6;fill-opacity:1;fill-rule:nonzero;stroke:none;stroke-width:0.35277778"
       d="M 21.181641 0.099609375 C 18.12534 0.13030111 15.593968 1.9561457 14.232422 4.4101562 C 14.232422 4.4101562 11.482736 2.6380016 8.2050781 4.3066406 C 5.9014391 5.4799786 4.4627529 8.2381405 4.7636719 10.898438 C 4.7636719 10.898438 0.099609375 11.241803 0.099609375 16.251953 C 0.099609375 19.008206 2.5777951 21.439453 5.2363281 21.439453 L 8.7070312 21.439453 C 7.8621282 20.146876 7.6503906 18.809831 7.6503906 17.736328 C 7.6503906 12.5004 13.177734 11.724609 13.177734 11.724609 C 13.177734 11.724609 13.883892 6.7031125 18.900391 5.4140625 C 22.786944 4.4164075 25.733992 6.1634792 26.990234 8.1132812 C 26.990234 8.1132812 27.832344 7.5157691 29.703125 7.5644531 C 29.512977 5.8443081 28.319675 2.2377595 24.388672 0.7109375 C 23.276893 0.27922575 22.200408 0.089378797 21.181641 0.099609375 z M 116.70117 2.8671875 C 116.32088 2.8671875 116.00419 2.9971095 115.75195 3.2578125 C 115.49971 3.5181625 115.37305 3.8260406 115.37305 4.1816406 C 115.37305 4.5785156 115.50134 4.8988081 115.75781 5.1425781 C 116.01393 5.3867001 116.32899 5.5078125 116.70117 5.5078125 C 117.06489 5.5078125 117.37765 5.3830954 117.64258 5.1308594 C 117.90717 4.8786234 118.03906 4.5619356 118.03906 4.1816406 C 118.03906 3.8175746 117.91042 3.5084231 117.6543 3.2519531 C 117.39783 2.9958371 117.08111 2.8671875 116.70117 2.8671875 z M 53.324219 3.3496094 C 51.595961 3.3496094 50.074568 3.7332249 48.759766 4.4980469 C 47.444963 5.2628689 46.437108 6.3605026 45.734375 7.7910156 C 45.031642 9.2215296 44.679688 10.875176 44.679688 12.751953 C 44.679687 14.49644 45.026083 16.056702 45.720703 17.433594 C 46.414969 18.810133 47.396722 19.872853 48.666016 20.621094 C 49.935311 21.369689 51.384544 21.742188 53.013672 21.742188 C 54.700302 21.742188 56.190387 21.358546 57.484375 20.589844 C 58.778364 19.820788 59.770551 18.723156 60.460938 17.296875 C 61.150972 15.870594 61.498047 14.211717 61.498047 12.318359 C 61.498047 10.573873 61.156881 9.0184889 60.474609 7.6542969 C 59.792689 6.2901059 58.824627 5.2309896 57.572266 4.4785156 C 56.319552 3.7260406 54.903253 3.3496094 53.324219 3.3496094 z M 90.548828 3.6484375 L 90.548828 21.433594 L 95.25 21.433594 C 97.13489 21.433594 98.807814 21.059141 100.27148 20.310547 C 101.73481 19.561952 102.8641 18.496333 103.6582 17.111328 C 104.4516 15.726675 104.84766 14.127215 104.84766 12.316406 C 104.84766 6.5372012 101.71796 3.6484375 95.458984 3.6484375 L 90.548828 3.6484375 z M 53.164062 5.2226562 C 55.098696 5.2226562 56.606073 5.8720529 57.689453 7.1699219 C 58.772481 8.4677919 59.314453 10.274916 59.314453 12.589844 C 59.314453 14.855383 58.756814 16.634072 57.640625 17.923828 C 56.524436 19.213583 54.981113 19.857422 53.013672 19.857422 C 51.81458 19.857422 50.745357 19.554749 49.802734 18.947266 C 48.860112 18.33943 48.133705 17.479144 47.625 16.367188 C 47.116647 15.255584 46.863281 13.988453 46.863281 12.566406 C 46.863281 11.169053 47.127083 9.9023013 47.65625 8.7695312 C 48.185417 7.6367622 48.931095 6.7624344 49.894531 6.1464844 C 50.857614 5.5308874 51.94839 5.2226562 53.164062 5.2226562 z M 92.632812 5.5332031 L 95.410156 5.5332031 C 100.2471 5.5332031 102.66602 7.8114155 102.66602 12.367188 C 102.66602 14.649307 102.02022 16.415608 100.73047 17.667969 C 99.440359 18.920683 97.621528 19.546875 95.273438 19.546875 L 92.632812 19.546875 L 92.632812 5.5332031 z M 21.306641 6.2929688 C 20.663774 6.2747669 19.961581 6.3397746 19.197266 6.5136719 C 14.627735 7.5540139 14.199219 12.695312 14.199219 12.695312 C 14.199219 12.695312 8.96875 12.860653 8.96875 17.558594 C 8.96875 20.356122 10.404564 23.083984 14.386719 23.083984 L 35.132812 23.083984 C 37.696449 23.083984 38.759766 20.835255 38.759766 18.935547 C 38.759766 14.998547 35.132812 14.580078 35.132812 14.580078 C 35.286271 11.688359 33.64108 9.9274641 31.966797 9.1894531 C 29.156569 7.9490861 26.673828 9.3730469 26.673828 9.3730469 C 25.77409 8.0333294 24.092396 6.3718432 21.306641 6.2929688 z M 82.701172 8.421875 C 81.61003 8.421875 80.61749 8.7088549 79.724609 9.2792969 C 78.831729 9.8497379 78.129447 10.653887 77.621094 11.691406 C 77.112388 12.728926 76.859375 13.875865 76.859375 15.132812 C 76.859375 17.199738 77.367708 18.818117 78.384766 19.988281 C 79.401825 21.158445 80.814545 21.742188 82.625 21.742188 C 84.460503 21.742187 85.932941 21.33407 87.041016 20.515625 L 87.041016 18.617188 C 85.858505 19.543229 84.548355 20.005859 83.109375 20.005859 C 81.827733 20.005859 80.82511 19.629403 80.101562 18.873047 C 79.378015 18.116339 78.999957 17.022311 78.966797 15.591797 L 87.933594 15.591797 L 87.933594 14.525391 C 87.933594 12.598872 87.472942 11.10033 86.550781 10.029297 C 85.628972 8.9586169 84.346527 8.421875 82.701172 8.421875 z M 137.58008 8.421875 C 136.48894 8.421875 135.4964 8.7088549 134.60352 9.2792969 C 133.71064 9.8497379 133.0103 10.653887 132.50195 11.691406 C 131.99324 12.728926 131.74023 13.875865 131.74023 15.132812 C 131.74023 17.199738 132.24856 18.818117 133.26562 19.988281 C 134.28269 21.158445 135.6954 21.742188 137.50586 21.742188 C 139.34136 21.742187 140.8138 21.33407 141.92188 20.515625 L 141.92188 18.617188 C 140.73936 19.543229 139.42921 20.005859 137.99023 20.005859 C 136.70859 20.005859 135.70596 19.629403 134.98242 18.873047 C 134.25887 18.116339 133.88086 17.022311 133.84766 15.591797 L 142.81445 15.591797 L 142.81445 14.525391 C 142.81445 12.598872 142.3538 11.10033 141.43164 10.029297 C 140.50983 8.9586169 139.22544 8.421875 137.58008 8.421875 z M 70.337891 8.4238281 C 68.510502 8.4238281 67.120658 9.2292499 66.169922 10.841797 L 66.121094 10.841797 L 66.121094 8.7324219 L 64.087891 8.7324219 L 64.087891 21.433594 L 66.121094 21.433594 L 66.121094 14.189453 C 66.121094 13.015408 66.456701 12.051277 67.130859 11.294922 C 67.804664 10.538214 68.6421 10.160156 69.642578 10.160156 C 71.610372 10.160156 72.595703 11.502344 72.595703 14.189453 L 72.595703 21.433594 L 74.628906 21.433594 L 74.628906 13.65625 C 74.628906 11.9862 74.262911 10.696923 73.53125 9.7871094 C 72.799236 8.8776484 71.734891 8.4238281 70.337891 8.4238281 z M 112.85742 8.5097656 C 112.09648 8.5097656 111.42296 8.7631314 110.83594 9.2714844 C 110.24892 9.7801904 109.81401 10.473309 109.5332 11.349609 L 109.48438 11.349609 L 109.48438 8.7324219 L 107.45117 8.7324219 L 107.45117 21.433594 L 109.48438 21.433594 L 109.48438 14.958984 C 109.48438 13.602906 109.76579 12.502022 110.32812 11.654297 C 110.89046 10.806925 111.62245 10.382812 112.52344 10.382812 C 113.19337 10.382812 113.71015 10.518319 114.07422 10.791016 L 114.07227 8.6835938 C 113.79111 8.5678777 113.38623 8.5097656 112.85742 8.5097656 z M 115.6582 8.7324219 L 115.6582 21.433594 L 117.69141 21.433594 L 117.69141 8.7324219 L 115.6582 8.7324219 z M 119.28906 8.7324219 L 124.08984 21.433594 L 126.09961 21.433594 L 131.1582 8.7324219 L 129.02539 8.7324219 L 125.63867 18.009766 C 125.44852 18.547399 125.31659 19.122306 125.24219 19.734375 L 125.18164 19.734375 C 125.07404 19.031642 124.93369 18.435511 124.75977 17.947266 L 121.53516 8.7324219 L 119.28906 8.7324219 z M 82.675781 10.160156 C 83.675906 10.160156 84.451973 10.483701 85.001953 11.132812 C 85.551581 11.781924 85.833029 12.693143 85.849609 13.867188 L 78.992188 13.867188 C 79.165755 12.750998 79.587887 11.85382 80.257812 11.175781 C 80.927386 10.498095 81.733159 10.160156 82.675781 10.160156 z M 137.55664 10.160156 C 138.55677 10.160156 139.33088 10.483701 139.88086 11.132812 C 140.43049 11.781924 140.71387 12.693143 140.73047 13.867188 L 133.87305 13.867188 C 134.04661 12.750998 134.46679 11.85382 135.13672 11.175781 C 135.80629 10.498095 136.61402 10.160156 137.55664 10.160156 z "
       transform="translate(12.075532,16.289158)"
       id="path3719" />
  </g>
</svg>
