<?xml version="1.0" encoding="UTF-8" standalone="no"?>
<!-- Created with Inkscape (http://www.inkscape.org/) -->

<svg
   xmlns:dc="http://purl.org/dc/elements/1.1/"
   xmlns:cc="http://creativecommons.org/ns#"
   xmlns:rdf="http://www.w3.org/1999/02/22-rdf-syntax-ns#"
   xmlns:svg="http://www.w3.org/2000/svg"
   xmlns="http://www.w3.org/2000/svg"
   xmlns:sodipodi="http://sodipodi.sourceforge.net/DTD/sodipodi-0.dtd"
   xmlns:inkscape="http://www.inkscape.org/namespaces/inkscape"
   viewBox="0 0 194.65773 194.27977"
   version="1.1"
   id="svg8"
   inkscape:version="0.92.2 (5c3e80d, 2017-08-06)"
   sodipodi:docname="cat_email.svg">
  <defs
     id="defs2" />
  <sodipodi:namedview
     id="base"
     pagecolor="#ffffff"
     bordercolor="#666666"
     borderopacity="1.0"
     inkscape:pageopacity="0.0"
     inkscape:pageshadow="2"
     inkscape:zoom="0.49497475"
     inkscape:cx="296.49164"
     inkscape:cy="378.54279"
     inkscape:document-units="mm"
     inkscape:current-layer="layer1"
     showgrid="false"
     fit-margin-top="0"
     fit-margin-left="0"
     fit-margin-right="0"
     fit-margin-bottom="0"
     showguides="true"
     inkscape:guide-bbox="true"
     inkscape:window-width="1366"
     inkscape:window-height="705"
     inkscape:window-x="-8"
     inkscape:window-y="-8"
     inkscape:window-maximized="1" />
  <metadata
     id="metadata5">
    <rdf:RDF>
      <cc:Work
         rdf:about="">
        <dc:format>image/svg+xml</dc:format>
        <dc:type
           rdf:resource="http://purl.org/dc/dcmitype/StillImage" />
        <dc:title />
      </cc:Work>
    </rdf:RDF>
  </metadata>
  <g
     inkscape:label="Livello 1"
     inkscape:groupmode="layer"
     id="layer1"
     transform="translate(-6.5978956,8.2823839)">
    <path
       style="color:#000000;font-style:normal;font-variant:normal;font-weight:normal;font-stretch:normal;font-size:medium;line-height:normal;font-family:sans-serif;font-variant-ligatures:normal;font-variant-position:normal;font-variant-caps:normal;font-variant-numeric:normal;font-variant-alternates:normal;font-feature-settings:normal;text-indent:0;text-align:start;text-decoration:none;text-decoration-line:none;text-decoration-style:solid;text-decoration-color:#000000;letter-spacing:normal;word-spacing:normal;text-transform:none;writing-mode:lr-tb;direction:ltr;text-orientation:mixed;dominant-baseline:auto;baseline-shift:baseline;text-anchor:start;white-space:normal;shape-padding:0;clip-rule:nonzero;display:inline;overflow:visible;visibility:visible;opacity:1;isolation:auto;mix-blend-mode:normal;color-interpolation:sRGB;color-interpolation-filters:linearRGB;solid-color:#000000;solid-opacity:1;vector-effect:none;fill:currentColor;fill-opacity:1;fill-rule:nonzero;stroke:none;stroke-width:13.22916603;stroke-linecap:round;stroke-linejoin:round;stroke-miterlimit:4;stroke-dasharray:none;stroke-dashoffset:0;stroke-opacity:1;color-rendering:auto;image-rendering:auto;shape-rendering:auto;text-rendering:auto;enable-background:accumulate"
       d="M 97.330078 0 C 43.66263 -1.2e-006 9.9999966e-008 43.562633 0 97.140625 C -1.7e-006 150.71861 43.662629 194.28125 97.330078 194.28125 C 150.99754 194.28125 194.6582 150.71861 194.6582 97.140625 C 194.6582 43.562634 150.99754 -5.9999997e-007 97.330078 0 z M 97.330078 13.230469 C 143.86286 13.230468 181.42969 50.727131 181.42969 97.140625 C 181.4297 143.55412 143.86286 181.05078 97.330078 181.05078 C 50.797307 181.05078 13.228514 143.55412 13.228516 97.140625 C 13.228516 50.727131 50.797308 13.230468 97.330078 13.230469 z M 42.294922 46.339844 C 35.283462 46.339844 29.595703 52.027605 29.595703 59.039062 L 29.595703 64.066406 C 29.595703 66.024322 30.494717 67.851275 32.029297 69.068359 C 40.125547 75.3919 42.798002 77.639769 77.908203 103.11914 C 82.353203 106.34706 91.189793 114.17811 97.328125 114.07227 C 103.46645 114.17811 112.305 106.34706 116.75 103.11914 C 151.8602 77.639769 154.53266 75.418359 162.62891 69.068359 C 164.16349 67.877734 165.0625 66.024322 165.0625 64.066406 L 165.0625 59.039062 C 165.0625 52.027605 159.37279 46.339844 152.36133 46.339844 L 42.294922 46.339844 z M 163.33203 79.554688 C 163.04306 79.577839 162.75406 79.68362 162.49609 79.888672 C 156.56943 84.492426 148.7375 90.367035 121.75 109.97266 C 116.37896 113.88849 106.77375 122.64581 97.328125 122.56641 C 87.935413 122.61932 78.516305 114.04724 72.933594 109.97266 C 45.946094 90.367035 38.088769 84.519762 32.162109 79.916016 C 31.103769 79.095808 29.595703 79.835286 29.595703 81.158203 L 29.595703 135.24023 C 29.595703 142.25169 35.283462 147.93945 42.294922 147.93945 L 152.36133 147.93945 C 159.37279 147.93945 165.0625 142.25169 165.0625 135.24023 L 165.0625 81.132812 C 165.0625 80.160466 164.19896 79.485234 163.33203 79.554688 z "
       transform="translate(6.5978956,-8.2823839)"
       id="path4515" />
  </g>
</svg>
