<?xml version="1.0" encoding="UTF-8" standalone="no"?>
<!-- Created with Inkscape (http://www.inkscape.org/) -->

<svg
   xmlns:dc="http://purl.org/dc/elements/1.1/"
   xmlns:cc="http://creativecommons.org/ns#"
   xmlns:rdf="http://www.w3.org/1999/02/22-rdf-syntax-ns#"
   xmlns:svg="http://www.w3.org/2000/svg"
   xmlns="http://www.w3.org/2000/svg"
   xmlns:sodipodi="http://sodipodi.sourceforge.net/DTD/sodipodi-0.dtd"
   xmlns:inkscape="http://www.inkscape.org/namespaces/inkscape"
   viewBox="0 0 194.65773 194.27977"
   version="1.1"
   id="svg8"
   inkscape:version="0.92.2 (5c3e80d, 2017-08-06)"
   sodipodi:docname="cat_institutional.svg">
  <defs
     id="defs2" />
  <sodipodi:namedview
     id="base"
     pagecolor="#ffffff"
     bordercolor="#666666"
     borderopacity="1.0"
     inkscape:pageopacity="0.0"
     inkscape:pageshadow="2"
     inkscape:zoom="0.49497475"
     inkscape:cx="296.49164"
     inkscape:cy="378.54279"
     inkscape:document-units="mm"
     inkscape:current-layer="layer1"
     showgrid="false"
     fit-margin-top="0"
     fit-margin-left="0"
     fit-margin-right="0"
     fit-margin-bottom="0"
     showguides="true"
     inkscape:guide-bbox="true"
     inkscape:window-width="1366"
     inkscape:window-height="705"
     inkscape:window-x="-8"
     inkscape:window-y="-8"
     inkscape:window-maximized="1" />
  <metadata
     id="metadata5">
    <rdf:RDF>
      <cc:Work
         rdf:about="">
        <dc:format>image/svg+xml</dc:format>
        <dc:type
           rdf:resource="http://purl.org/dc/dcmitype/StillImage" />
        <dc:title />
      </cc:Work>
    </rdf:RDF>
  </metadata>
  <g
     inkscape:label="Livello 1"
     inkscape:groupmode="layer"
     id="layer1"
     transform="translate(-6.5978956,8.2823839)">
    <path
       style="color:#000000;font-style:normal;font-variant:normal;font-weight:normal;font-stretch:normal;font-size:medium;line-height:normal;font-family:sans-serif;font-variant-ligatures:normal;font-variant-position:normal;font-variant-caps:normal;font-variant-numeric:normal;font-variant-alternates:normal;font-feature-settings:normal;text-indent:0;text-align:start;text-decoration:none;text-decoration-line:none;text-decoration-style:solid;text-decoration-color:#000000;letter-spacing:normal;word-spacing:normal;text-transform:none;writing-mode:lr-tb;direction:ltr;text-orientation:mixed;dominant-baseline:auto;baseline-shift:baseline;text-anchor:start;white-space:normal;shape-padding:0;clip-rule:nonzero;display:inline;overflow:visible;visibility:visible;opacity:1;isolation:auto;mix-blend-mode:normal;color-interpolation:sRGB;color-interpolation-filters:linearRGB;solid-color:#000000;solid-opacity:1;vector-effect:none;fill:currentColor;fill-opacity:1;fill-rule:nonzero;stroke:none;stroke-width:13.22916603;stroke-linecap:round;stroke-linejoin:round;stroke-miterlimit:4;stroke-dasharray:none;stroke-dashoffset:0;stroke-opacity:1;color-rendering:auto;image-rendering:auto;shape-rendering:auto;text-rendering:auto;enable-background:accumulate"
       d="M 97.330078 0 C 43.66263 -1.2e-006 9.9999966e-008 43.562633 0 97.140625 C -1.7e-006 150.71861 43.662629 194.28125 97.330078 194.28125 C 150.99754 194.28125 194.6582 150.71861 194.6582 97.140625 C 194.6582 43.562634 150.99754 -5.9999997e-007 97.330078 0 z M 97.330078 13.230469 C 143.86286 13.230468 181.42969 50.727131 181.42969 97.140625 C 181.4297 143.55412 143.86286 181.05078 97.330078 181.05078 C 50.797307 181.05078 13.228514 143.55412 13.228516 97.140625 C 13.228516 50.727131 50.797308 13.230468 97.330078 13.230469 z M 97.34375 30.994141 A 2.1156083 2.1156083 0 0 0 96.519531 31.154297 L 35.136719 54.4375 A 2.1166667 2.1166667 0 0 0 33.828125 56.394531 L 33.828125 60.626953 A 2.1166667 2.1166667 0 0 0 35.945312 62.744141 L 42.294922 62.744141 L 42.294922 65.919922 C 42.294922 67.673322 43.717303 69.09375 45.470703 69.09375 L 149.1875 69.09375 C 150.9409 69.09375 152.36133 67.673322 152.36133 65.919922 L 152.36133 62.744141 L 158.71289 62.744141 A 2.1166667 2.1166667 0 0 0 160.82812 60.626953 L 160.82812 56.394531 A 2.1166667 2.1166667 0 0 0 159.52148 54.4375 L 98.138672 31.154297 A 2.1156083 2.1156083 0 0 0 97.34375 30.994141 z M 54.996094 73.328125 L 54.996094 124.12695 L 45.470703 124.12695 C 43.717303 124.12695 42.294922 125.54933 42.294922 127.30273 L 42.294922 132.59375 L 152.36133 132.59375 L 152.36133 127.30273 C 152.36133 125.54933 150.9409 124.12695 149.1875 124.12695 L 139.66211 124.12695 L 139.66211 73.328125 L 122.72852 73.328125 L 122.72852 124.12695 L 105.79492 124.12695 L 105.79492 73.328125 L 88.861328 73.328125 L 88.861328 124.12695 L 71.929688 124.12695 L 71.929688 73.328125 L 54.996094 73.328125 z M 40.179688 136.82812 C 36.672638 136.82812 33.828125 139.67067 33.828125 143.17773 L 33.828125 147.41016 A 2.1166667 2.1166667 0 0 0 35.945312 149.52734 L 158.71289 149.52734 A 2.1166667 2.1166667 0 0 0 160.82812 147.41016 L 160.82812 143.17773 C 160.82812 139.67067 157.98557 136.82812 154.47852 136.82812 L 40.179688 136.82812 z "
       transform="translate(6.5978956,-8.2823839)"
       id="path4515" />
  </g>
</svg>
