<?xml version="1.0" encoding="UTF-8" standalone="no"?>
<svg
   xmlns:dc="http://purl.org/dc/elements/1.1/"
   xmlns:cc="http://creativecommons.org/ns#"
   xmlns:rdf="http://www.w3.org/1999/02/22-rdf-syntax-ns#"
   xmlns:svg="http://www.w3.org/2000/svg"
   xmlns="http://www.w3.org/2000/svg"
   xmlns:sodipodi="http://sodipodi.sourceforge.net/DTD/sodipodi-0.dtd"
   xmlns:inkscape="http://www.inkscape.org/namespaces/inkscape"
   width="100%"
   viewBox="0 0 2565 465"
   version="1.1"
   id="svg147"
   sodipodi:docname="googledrive_logo.svg"
   inkscape:version="0.92.2 (5c3e80d, 2017-08-06)">
  <metadata
     id="metadata151">
    <rdf:RDF>
      <cc:Work
         rdf:about="">
        <dc:format>image/svg+xml</dc:format>
        <dc:type
           rdf:resource="http://purl.org/dc/dcmitype/StillImage" />
      </cc:Work>
    </rdf:RDF>
  </metadata>
  <sodipodi:namedview
     pagecolor="#ffffff"
     bordercolor="#666666"
     borderopacity="1"
     objecttolerance="10"
     gridtolerance="10"
     guidetolerance="10"
     inkscape:pageopacity="0"
     inkscape:pageshadow="2"
     inkscape:window-width="1366"
     inkscape:window-height="705"
     id="namedview149"
     showgrid="false"
     inkscape:zoom="0.56608187"
     inkscape:cx="121.56171"
     inkscape:cy="286.20605"
     inkscape:window-x="-8"
     inkscape:window-y="-8"
     inkscape:window-maximized="1"
     inkscape:current-layer="layer3" />
  <!-- Generator: Sketch 51.2 (57519) - http://www.bohemiancoding.com/sketch -->
  <title
     id="title2">Drive Lockup - with gray Google</title>
  <desc
     id="desc4">Created with Sketch.</desc>
  <defs
     id="defs23">
    <linearGradient
       x1="32.474622"
       y1="64.329184"
       x2="129.04661"
       y2="125.05767"
       id="linearGradient-3"
       gradientTransform="scale(1.0764612,0.92896984)"
       gradientUnits="userSpaceOnUse">
      <stop
         stop-color="#1A237E"
         stop-opacity="0.2"
         offset="0%"
         id="stop7" />
      <stop
         stop-color="#1A237E"
         stop-opacity="0.02"
         offset="100%"
         id="stop9" />
    </linearGradient>
    <linearGradient
       x1="32.474621"
       y1="64.329185"
       x2="129.04662"
       y2="125.05767"
       id="linearGradient-3-5"
       gradientTransform="matrix(1.0764612,0,0,0.92896984,87.738658,286.76927)"
       gradientUnits="userSpaceOnUse">
      <stop
         stop-color="#1A237E"
         stop-opacity="0.2"
         offset="0%"
         id="stop7-0" />
      <stop
         stop-color="#1A237E"
         stop-opacity="0.02"
         offset="100%"
         id="stop9-0" />
    </linearGradient>
    <linearGradient
       x1="32.474621"
       y1="64.329185"
       x2="129.04662"
       y2="125.05767"
       id="linearGradient-3-5-2"
       gradientTransform="matrix(1.0764612,0,0,0.92896984,87.738661,286.76927)"
       gradientUnits="userSpaceOnUse">
      <stop
         stop-color="#1A237E"
         stop-opacity="0.2"
         offset="0%"
         id="stop7-0-6" />
      <stop
         stop-color="#1A237E"
         stop-opacity="0.02"
         offset="100%"
         id="stop9-0-8" />
    </linearGradient>
  </defs>
  <path
     style="fill:#757575;fill-rule:nonzero;stroke:none;stroke-width:1"
     d="M 681.64844 86.410156 C 606.3724 86.410156 543.08984 147.70057 543.08984 222.99414 C 543.08984 298.26167 606.3724 359.58008 681.64844 359.58008 C 722.29178 359.58008 752.91575 346.25461 776.90625 321.26953 C 801.57327 296.59677 809.22461 261.9566 809.22461 233.97852 C 809.22461 225.31182 808.54773 217.32088 807.2207 210.6582 L 681.64844 210.6582 L 681.64844 247.98047 L 770.92188 247.98047 C 768.2418 268.98355 761.26978 284.28632 750.60156 294.95703 C 737.59153 307.97009 717.29593 322.28516 681.64844 322.28516 C 626.69407 322.28516 583.73438 277.9613 583.73438 222.99414 C 583.73437 168.00095 626.69407 123.70508 681.64844 123.70508 C 711.31131 123.70508 732.95923 135.36442 748.93555 150.35547 L 775.24219 124.04297 C 752.91697 102.72758 723.28054 86.410156 681.64844 86.410156 z M 1402.8711 95.726562 L 1402.8711 354.24414 L 1441.5117 354.24414 L 1441.5117 95.726562 L 1402.8711 95.726562 z M 910.70312 183.66992 C 862.07164 183.66992 822.44141 220.65219 822.44141 271.61133 C 822.44141 322.25816 862.07167 359.55469 910.70312 359.55469 C 959.33461 359.55469 998.96289 322.23213 998.96289 271.61133 C 998.96289 220.65219 959.33465 183.66992 910.70312 183.66992 z M 1103.25 183.66992 C 1054.6185 183.66992 1014.9902 220.65219 1014.9902 271.61133 C 1014.9902 322.25816 1054.6185 359.55469 1103.25 359.55469 C 1151.8815 359.55469 1191.5098 322.23213 1191.5098 271.61133 C 1191.5098 220.65219 1151.8815 183.66992 1103.25 183.66992 z M 1291.9746 183.66992 C 1248.0007 183.66992 1207.6953 222.31741 1207.6953 271.94922 C 1207.6953 321.26871 1248.0007 359.58008 1291.9746 359.58008 C 1312.9468 359.58008 1329.599 350.26251 1338.2637 339.5918 L 1339.5918 339.5918 L 1339.5918 352.24023 C 1339.5918 385.89201 1321.6113 403.87695 1292.625 403.87695 C 1268.9728 403.87695 1254.3226 386.88078 1248.3379 372.56641 L 1214.6953 386.56836 C 1224.3488 409.88776 1250.0041 438.54297 1292.625 438.54297 C 1337.9259 438.54297 1376.2266 411.89283 1376.2266 346.93164 L 1376.2266 189.00391 L 1339.5918 189.00391 L 1339.5918 203.31836 L 1338.2637 203.31836 C 1329.599 192.98599 1312.9468 183.66992 1291.9746 183.66992 z M 1543.1191 183.69531 C 1497.8182 183.69531 1460.1934 219.35025 1460.1934 271.63672 C 1460.1934 320.93019 1497.5063 359.58008 1547.4648 359.58008 C 1587.7699 359.58008 1611.0848 334.93219 1620.7383 320.5918 L 1590.7617 300.60547 C 1580.7439 315.25818 1567.0846 324.93945 1547.4395 324.93945 C 1527.7943 324.93945 1513.7953 315.93477 1504.8184 298.28906 L 1622.4023 249.64453 L 1618.3965 239.65234 C 1611.0588 220.00262 1588.7583 183.69531 1543.1191 183.69531 z M 1544.4199 217.66016 C 1559.7458 217.66016 1572.7315 225.31126 1577.0508 236.32031 L 1498.4434 268.95703 C 1497.4546 234.96692 1524.7748 217.66016 1544.4199 217.66016 z M 910.70312 218.33594 C 937.34767 218.33594 960.32227 239.98896 960.32227 271.63672 C 960.32227 302.94615 937.34767 324.93945 910.70312 324.93945 C 884.05858 324.93945 861.08203 302.94615 861.08203 271.63672 C 861.08203 239.98896 884.0586 218.33594 910.70312 218.33594 z M 1103.25 218.33594 C 1129.8945 218.33594 1152.8711 239.98896 1152.8711 271.63672 C 1152.8711 302.94615 1129.8945 324.93945 1103.25 324.93945 C 1076.6054 324.93945 1053.6309 302.94615 1053.6309 271.63672 C 1053.6309 239.98896 1076.6054 218.33594 1103.25 218.33594 z M 1295.3047 218.33594 C 1321.6109 218.33594 1342.2715 240.97945 1342.2715 271.97656 C 1342.2455 302.60931 1321.6109 324.93945 1295.3047 324.93945 C 1268.6601 324.93945 1246.3359 302.60931 1246.3359 271.97656 C 1246.3359 241.00548 1268.6601 218.33594 1295.3047 218.33594 z "
     id="XMLID_165_" />
  <path
     transform="matrix(1,0,0,-1,541.21731,440.13059)"
     style="fill:none;fill-rule:evenodd;stroke:none;stroke-width:1"
     d="M 1082.4346,353.95522 H 0 V 0 h 1082.4346 z"
     id="XMLID_50_" />
  <path
     style="fill:#757575;fill-rule:evenodd;stroke:none;stroke-width:1"
     inkscape:connector-curvature="0"
     id="Drive"
     d="M 1758.651,355.69029 V 117.16612 h 72.9394 c 36.6364,0 65.9451,11.04884 87.927,33.14686 21.9819,22.09803 32.9726,50.80281 32.9726,86.11523 0,35.31241 -10.9907,64.0172 -32.9726,86.11522 -21.9819,22.09802 -51.2906,33.14686 -87.927,33.14686 z m 30.6412,-29.31582 h 42.2982 c 27.5328,0 49.3478,-7.8841 65.4457,-23.65253 16.0978,-15.76844 24.1466,-37.86613 24.1466,-66.29373 0,-28.20552 -8.0488,-50.24769 -24.1466,-66.12716 -16.0979,-15.87949 -37.9129,-23.81911 -65.4457,-23.81911 h -42.2982 z m 222.963,29.31582 H 1981.614 V 192.45447 h 29.309 v 26.65075 h 1.3322 c 3.1086,-8.88363 9.4921,-16.21251 19.1508,-21.98687 9.6587,-5.77435 19.0397,-8.66149 28.1433,-8.66149 9.1036,0 16.7638,1.33253 22.9809,3.99761 l -11.657,28.64956 c -3.9967,-1.55464 -9.4366,-2.33194 -16.3198,-2.33194 -11.1019,0 -20.927,4.38622 -29.4755,13.1588 -8.5485,8.77258 -12.8227,20.2656 -12.8227,34.4794 z m 113.0543,-197.88178 c -5.9951,0 -11.1019,-2.10983 -15.3206,-6.32956 -4.2188,-4.21972 -6.3281,-9.32773 -6.3281,-15.32417 0,-5.99645 2.1093,-11.10446 6.3281,-15.32418 4.2187,-4.21973 9.3255,-6.32955 15.3206,-6.32955 5.995,0 11.1019,2.10982 15.3206,6.32955 4.2188,4.21972 6.3281,9.32773 6.3281,15.32418 0,5.99644 -2.1093,11.10445 -6.3281,15.32417 -4.2187,4.21973 -9.3256,6.32956 -15.3206,6.32956 z m 15.3206,197.88178 h -30.6412 V 192.45447 h 30.6412 z m 93.4039,0 -65.9452,-163.23582 h 33.3057 l 47.9602,126.59105 h 0.6661 l 48.6263,-126.59105 h 32.6395 l -66.6113,163.23582 z m 190.9896,5.33015 c -24.6463,0 -44.685,-8.21723 -60.1167,-24.65194 -15.4317,-16.43471 -23.1475,-37.19987 -23.1475,-62.29612 0,-23.7637 7.4937,-44.19573 22.4814,-61.29671 14.9876,-17.10098 34.1382,-25.65135 57.4523,-25.65135 24.2022,0 43.5748,7.88411 58.1184,23.65254 14.5435,15.76844 21.8152,36.86674 21.8152,63.29552 l -0.3331,5.66329 h -128.893 c 0.8882,16.43471 6.3836,29.42682 16.4864,38.97671 10.1027,9.5499 21.9261,14.32478 35.4705,14.32478 21.9819,0 36.8583,-9.32767 44.6296,-27.98328 l 27.3107,11.32656 c -5.329,12.65917 -14.0994,23.26384 -26.3115,31.81433 -12.2122,8.55049 -27.1996,12.82567 -44.9627,12.82567 z m 43.9635,-106.60298 c -0.6661,-9.32781 -4.9403,-18.2113 -12.8227,-26.65075 -7.8824,-8.43944 -19.5947,-12.6591 -35.1375,-12.6591 -11.324,0 -21.149,3.5534 -29.4755,10.6603 -8.3265,7.1069 -14.0439,16.65665 -17.1524,28.64955 z" />
  <path
     style="fill:none;fill-rule:evenodd;stroke:none;stroke-width:1"
     d="M 0,0 H 2565 V 465 H 0 Z"
     id="Rectangle" />
  <g
     inkscape:groupmode="layer"
     id="layer3"
     inkscape:label="Root"
     style="display:inline">
    <path
       inkscape:connector-curvature="0"
       style="display:inline;fill:#4285f4;fill-rule:nonzero;stroke:none;stroke-width:1"
       d="m 87.781573,286.76927 v 119.0454 H 374.79733 l 67.06189,-119.0454 z"
       id="Shape" />
    <path
       inkscape:connector-curvature="0"
       style="display:inline;fill:#0f9d58;fill-rule:nonzero;stroke:none;stroke-width:1"
       d="M 162.57962,39.52114 20.719679,286.76927 87.781573,405.81467 249.57698,126.53874 Z"
       id="polygon91" />
    <path
       inkscape:connector-curvature="0"
       style="display:inline;fill:#ffcd40;fill-rule:nonzero;stroke:none;stroke-width:1"
       d="m 305.83572,286.76928 h 136.0235 L 299.99928,39.521147 H 162.57962 Z"
       id="polygon114" />
    <path
       inkscape:connector-curvature="0"
       style="display:inline;fill:url(#linearGradient-3-5-2);fill-rule:nonzero;stroke:none;stroke-width:1"
       d="M 225.72765,405.81467 H 87.781573 l 68.961597,-119.0454 z"
       id="polygon30" />
  </g>
</svg>
